<?xml version="1.0" standalone="no"?><!DOCTYPE svg PUBLIC "-//W3C//DTD SVG 1.1//EN" "http://www.w3.org/Graphics/SVG/1.1/DTD/svg11.dtd"><svg class="icon" width="200px" height="200.00px" viewBox="0 0 1024 1024" version="1.1" xmlns="http://www.w3.org/2000/svg"><path d="M938.02496 367.96416c20.48 17.42848 33.66912 38.42048 37.86752 62.2592 9.1136 51.69152-26.05056 103.50592-91.0336 148.8896l-0.34816 2.4576C851.41504 759.74656 695.296 890.88 512 890.88a378.69568 378.69568 0 0 1-327.51616-188.29312c-76.53376-20.43904-127.24224-57.09824-136.37632-108.78976-4.44416-25.31328 1.69984-51.01568 16.83456-75.71456a30.72 30.72 0 1 1 52.38784 32.11264c-7.7824 12.65664-10.36288 23.51104-8.704 32.93184 11.32544 64.24576 202.77248 99.40992 426.496 59.96544l17.3056-3.19488c214.99904-41.34912 373.9648-136.43776 362.94656-199.02464-1.536-8.78592-6.98368-17.44896-17.16224-26.112a30.72 30.72 0 1 1 39.81312-46.7968zM512 133.12c184.95488 0 340.23424 123.82208 371.5072 304.06656 3.19488 18.39104-28.18048 44.58496-77.70112 71.20896-81.18272 39.0144-192.2048 76.34944-289.91488 92.672-121.58976 20.29568-257.39264 15.68768-337.6128-2.19136-23.40864-7.43424-37.94944-16.4864-39.89504-26.56256C134.10304 550.0928 133.12 534.9376 133.12 512 133.12 302.75584 302.75584 133.12 512 133.12z" fill="#131415" /><path d="M631.68512 285.65504a256.79872 256.79872 0 0 1 119.33696 134.49216 30.72 30.72 0 0 1-57.344 22.03648A195.35872 195.35872 0 0 0 602.9312 339.968a30.72 30.72 0 0 1 28.75392-54.29248zM512 256a30.72 30.72 0 0 1 0 61.44c-18.14528 0-35.92192 2.4576-53.00224 7.29088a30.72 30.72 0 1 1-16.71168-59.12576c22.528-6.3488 45.91616-9.60512 69.71392-9.60512z" fill="#FFFFFF" /></svg>